<?xml version="1.0" encoding="UTF-8"?>
<svg xmlns="http://www.w3.org/2000/svg" viewBox="0 0 295.37 106.26">
  <g isolation="isolate">
    <g id="Layer_2" data-name="Layer 2">
      <g>
        <text transform="translate(187.02 43.94)" fill="#006a71" font-family="Montserrat-Regular, Montserrat" font-size="13.27" letter-spacing=".46em"><tspan x="0" y="0">HEH</tspan></text>
        <text transform="translate(122.58 63.68)" fill="#b85644" font-family="Montserrat-Black, Montserrat" font-size="17.45" font-weight="800"><tspan x="0" y="0" letter-spacing=".05em">P</tspan><tspan x="13.84" y="0" letter-spacing=".06em">H</tspan><tspan x="28.92" y="0" letter-spacing=".04em">Y</tspan><tspan x="42.1" y="0" letter-spacing=".06em">SI</tspan><tspan x="61.77" y="0" letter-spacing=".05em">O</tspan><tspan x="77.44" y="0" letter-spacing=".06em">THERA</tspan><tspan x="146.95" y="0" letter-spacing=".05em">P</tspan><tspan x="160.79" y="0" letter-spacing=".06em">Y</tspan></text>
      </g>
    </g>
    <g id="OBJECTS">
      <g>
        <path d="M92.51,4.3c-16.93-5.48-31.65,4.57-34.08,10.46-2.46-5.89-17.15-15.94-34.08-10.46C6.8,9.98,2.76,35.98,15.76,56.17c11.26,17.5,34.46,31.3,42.66,32.06,8.2-.76,31.4-14.57,42.66-32.06,13-20.2,8.96-46.2-8.58-51.88Z" fill="#ffcfc7"/>
        <path d="M96.55,72.88h-.01c-.87,0-1.63-.6-1.84-1.45l-9.87-40.06-3.07,11.57c-.22,.84-.98,1.42-1.84,1.42h-3.36c-2.3,10.72-5.48,25.72-5.63,26.8,.02-.17,.02-.36-.02-.56,.06,.71-.04,1.66-1.1,2.12-.66,.29-1.42,.18-1.97-.27-.65-.53-.76-1.06-.65-1.9-.05,.2-.06,.4-.04,.58-.16-1.33-4.66-25.06-8.37-44.5l-5.07,17.5c-.24,.82-.98,1.38-1.83,1.38h-1.85l-1.02,3c-.27,.79-1,1.31-1.84,1.29-.83-.02-1.55-.56-1.79-1.36l-1.36-4.56-6.22,25.32c-.21,.86-.99,1.46-1.88,1.45-.89-.01-1.65-.63-1.84-1.5l-6.92-31.71-7.3,19.03c-.28,.74-.99,1.22-1.78,1.22H5.34v-3.82h11.41l9.11-23.76c.3-.79,1.09-1.28,1.93-1.22,.84,.06,1.54,.67,1.72,1.5l6.53,29.91,5.93-24.13c.21-.84,.94-1.43,1.81-1.45,.86-.02,1.63,.54,1.87,1.36l1.81,6.04c.33-.27,.75-.42,1.2-.42h1.79l6.88-23.77c.25-.85,1.04-1.42,1.92-1.37,.88,.04,1.62,.68,1.79,1.55,.03,.13,2.54,13.26,5,26.24,1.29,6.77,2.33,12.32,3.12,16.53,.29-1.39,.62-2.92,.97-4.58,1.51-7.12,3.04-14.23,3.04-14.23,.19-.88,.97-1.51,1.87-1.51h3.44l4.61-17.36c.22-.84,.98-1.42,1.84-1.42,0,0,.01,0,.02,0,.87,0,1.63,.61,1.84,1.45l9.85,39.98,5.39-20.76c.22-.84,.98-1.43,1.85-1.43h9.43v3.82h-7.95l-6.91,26.64c-.22,.84-.98,1.43-1.85,1.43Z" fill="#fff"/>
      </g>
      <g>
        <rect x="25.99" y="61.28" width="6.64" height="5.28" transform="translate(92.54 94.69) rotate(140.59)" fill="#1b585c"/>
        <rect x="26.37" y="62.33" width="3.32" height="5.28" transform="translate(-34.88 32.57) rotate(-39.42)" fill="#9de3df" mix-blend-mode="multiply"/>
        <rect x="26.44" y="65.52" width="10.11" height="2.11" transform="translate(98.1 98.01) rotate(140.58)" fill="#62c9c3"/>
        <polygon points="9.02 46.71 11.45 42.18 16.36 40.68 30.92 58.39 23.58 64.43 9.02 46.71" fill="#b5f2ef"/>
        <polygon points="26.6 61.95 12.04 44.23 13.47 41.56 11.45 42.18 9.02 46.71 23.58 64.43 26.6 61.95" fill="#9de3df" mix-blend-mode="multiply"/>
        <rect x="21.44" y="60.4" width="11.81" height="2.26" transform="translate(87.54 91.7) rotate(140.58)" fill="#006a71"/>
        <g>
          <rect x="25.41" y="58" width="3.71" height=".37" transform="translate(85.26 85.83) rotate(140.58)" fill="#006a71"/>
          <rect x="25.73" y="57.01" width="2.72" height=".37" transform="translate(84.33 84.18) rotate(140.59)" fill="#006a71"/>
          <rect x="25.17" y="56.33" width="2.72" height=".37" transform="translate(82.91 83.33) rotate(140.58)" fill="#006a71"/>
          <rect x="24.61" y="55.65" width="2.72" height=".37" transform="translate(81.49 82.49) rotate(140.59)" fill="#006a71"/>
          <rect x="24.06" y="54.98" width="2.72" height=".37" transform="translate(80.07 81.64) rotate(140.58)" fill="#006a71"/>
          <rect x="22.62" y="54.61" width="3.71" height=".37" transform="translate(78.18 81.59) rotate(140.59)" fill="#006a71"/>
          <rect x="22.94" y="53.62" width="2.72" height=".37" transform="translate(77.24 79.94) rotate(140.58)" fill="#006a71"/>
          <rect x="22.39" y="52.94" width="2.72" height=".37" transform="translate(75.82 79.1) rotate(140.59)" fill="#006a71"/>
          <rect x="21.83" y="52.27" width="2.72" height=".37" transform="translate(74.41 78.25) rotate(140.58)" fill="#006a71"/>
          <rect x="21.27" y="51.59" width="2.72" height=".37" transform="translate(72.99 77.4) rotate(140.59)" fill="#006a71"/>
          <rect x="19.84" y="51.23" width="3.71" height=".37" transform="translate(71.09 77.36) rotate(140.58)" fill="#006a71"/>
          <rect x="20.16" y="50.23" width="2.72" height=".37" transform="translate(70.15 75.71) rotate(140.59)" fill="#006a71"/>
          <rect x="19.6" y="49.56" width="2.72" height=".37" transform="translate(68.74 74.86) rotate(140.58)" fill="#006a71"/>
          <rect x="19.05" y="48.88" width="2.72" height=".37" transform="translate(67.32 74.01) rotate(140.58)" fill="#006a71"/>
          <rect x="18.49" y="48.2" width="2.72" height=".37" transform="translate(65.9 73.17) rotate(140.58)" fill="#006a71"/>
          <rect x="17.06" y="47.84" width="3.71" height=".37" transform="translate(64.01 73.12) rotate(140.58)" fill="#006a71"/>
          <rect x="14.26" y="44.44" width="3.71" height=".37" transform="translate(56.9 68.87) rotate(140.58)" fill="#006a71"/>
          <rect x="17.38" y="46.85" width="2.72" height=".37" transform="translate(63.07 71.47) rotate(140.58)" fill="#006a71"/>
          <rect x="16.82" y="46.17" width="2.72" height=".37" transform="translate(61.65 70.62) rotate(140.59)" fill="#006a71"/>
          <rect x="16.26" y="45.49" width="2.72" height=".37" transform="translate(60.23 69.78) rotate(140.59)" fill="#006a71"/>
          <rect x="15.71" y="44.83" width="2.72" height=".37" transform="translate(58.84 68.94) rotate(140.59)" fill="#006a71"/>
        </g>
        <polygon points="5.9 36 6.07 35.08 11.15 41.26 10.6 41.71 5.9 36" fill="#1b585c"/>
        <g>
          <path d="M10.52,41.06h0c.54-.45,1.35-.37,1.8,.18l.16,.19-1.97,1.62-.16-.19c-.45-.54-.37-1.35,.18-1.8Z" fill="#006a71"/>
          <rect x="10.02" y="42.04" width="3.22" height=".74" transform="translate(-24.28 17.03) rotate(-39.42)" fill="#006a71"/>
        </g>
      </g>
      <g>
        <path d="M109.83,67.59c.57-2.31-.25-4.93-2.2-6.34-.75-.54-1.69,.56-.94,1.1,2.03,1.46,2.39,4.33,1.09,6.41-1.49,2.38-4.44,3.33-7.12,3.1-2.82-.24-5.54-1.52-7.73-3.29-1.3-1.05-2.31-2.26-3.19-3.58,2.16-2.23,3.68-5.3,4.71-8.07,.32-.87-.98-1.49-1.31-.61-.91,2.44-2.24,5.33-4.17,7.45-.4-.68-.77-1.38-1.14-2.1-1.16-2.27-2.64-4.69-5.17-5.59-2.25-.81-4.63-.16-5.99,1.86-1.27,1.89-1.37,4.39-.38,6.43,1.08,2.21,3.3,3.56,5.72,3.78,2.64,.24,4.83-.64,6.64-2.12,.69,1.03,1.46,1.99,2.4,2.87,3.48,3.27,8.97,5.62,13.72,3.94,2.37-.84,4.42-2.73,5.04-5.22Zm-27.7-.92c-2.49-.26-4.61-1.94-5-4.48-.36-2.42,1.19-5.3,3.94-5.04,2.76,.26,4.36,2.93,5.49,5.16,.44,.85,.87,1.68,1.35,2.48-1.58,1.33-3.48,2.13-5.79,1.88Z" fill="#62c9c3"/>
        <path d="M110.16,40.53c-.23-.85-.82-1.54-1.61-1.91l-1.99-.93-.69,1.47,1.99,.93c.36,.17,.63,.49,.73,.87,.11,.38,.04,.79-.19,1.12l-9.67,14.16c-.38,.55-1.09,.75-1.7,.46l-5.32-2.49c-.61-.28-.91-.96-.73-1.6l4.68-16.49c.11-.38,.38-.7,.74-.86,.36-.17,.78-.16,1.14,0l1.99,.93,.69-1.47-1.99-.93c-.79-.37-1.71-.38-2.5-.01-.8,.36-1.39,1.06-1.63,1.9l-4.68,16.49c-.4,1.41,.27,2.89,1.6,3.52l5.32,2.49c1.33,.62,2.9,.19,3.73-1.02l9.67-14.16c.49-.72,.65-1.62,.41-2.47Z" fill="#62c9c3"/>
        <path d="M96.11,58.67l-5.32-2.49c-1.57-.74-2.37-2.48-1.9-4.15l2.21-7.77c.09-.32,.42-.5,.74-.41l1.46,.41c.32,.09,.5,.42,.41,.74l-2.21,7.77c-.11,.39,.07,.79,.44,.96l5.32,2.49c.36,.17,.79,.05,1.02-.28l4.55-6.67c.19-.27,.56-.34,.83-.16l1.25,.85c.27,.19,.34,.56,.16,.83l-4.55,6.67c-.98,1.43-2.83,1.94-4.41,1.2Z" fill="#163133"/>
        <g>
          <rect x="98.39" y="33.6" width="3.04" height="3.74" rx="1.52" ry="1.52" transform="translate(25.41 110.9) rotate(-64.9)" fill="#163133"/>
          <rect x="104.66" y="36.54" width="3.04" height="3.74" rx="1.52" ry="1.52" transform="translate(26.36 118.28) rotate(-64.9)" fill="#163133"/>
        </g>
        <circle cx="105.85" cy="60.64" r="4.05" transform="translate(-15.98 66.81) rotate(-32.71)" fill="#1b585c"/>
        <path d="M108.26,61.77c-.62,1.33-2.21,1.91-3.55,1.28-1.33-.62-1.91-2.21-1.28-3.55,.62-1.33,2.21-1.91,3.55-1.28,1.33,.62,1.91,2.21,1.28,3.55Z" fill="#006a71"/>
      </g>
      <g>
        <path d="M88.2,68.81c-6.83,9.6-22,19.81-29.65,21.33-7.65-1.52-22.82-11.73-29.65-21.33-2.24-3.15-4.06-7.23-5.1-11.56-2.03-8.45-1.07-17.82,5.67-22.86,10.5-7.85,25.65-2.38,29.08,4.58,3.29-6.69,17.44-12.01,27.86-5.42,.42,.26,.82,.54,1.22,.84,10.2,7.62,7.17,25.14,.57,34.43Z" fill="#e05753"/>
        <path d="M88.2,68.81c-6.83,9.6-22,19.81-29.65,21.33-4.53-.9-11.71-4.85-18.22-9.92-4.48-3.48-8.65-7.5-11.43-11.41-2.24-3.14-4.06-7.23-5.1-11.56,3.21,5.13,8.14,9.3,13.72,11.71,9.23,4,19.92,3.68,29.55,.77,5.5-1.67,10.86-4.23,14.88-8.33,3.89-3.97,6.37-9.31,6.87-14.86,.4-4.44-.46-8.99-2.42-12.99,.42,.26,.82,.54,1.22,.84,1.45,1.09,2.64,2.37,3.58,3.8,5.69,8.64,2.66,22.66-3.01,30.62Z" fill="#ffc2b8" mix-blend-mode="multiply"/>
        <ellipse cx="37.26" cy="44.57" rx="13.37" ry="9.73" transform="translate(-20.61 39.4) rotate(-45)" fill="#fff" mix-blend-mode="soft-light" opacity=".5"/>
        <path d="M88.2,68.81c-6.83,9.6-22,19.81-29.65,21.33-4.53-.9-11.71-4.85-18.22-9.92,11.84,1.8,24.29-.53,34.64-6.56,6.7-3.9,12.65-9.48,15.76-16.59,2.59-5.92,2.96-12.98,.47-18.88,5.69,8.64,2.66,22.66-3.01,30.62Z" fill="#ffc2b8" mix-blend-mode="multiply"/>
      </g>
      <g>
        <g>
          <g>
            <path d="M85.87,83.22c-3.71,2.95-9.95,3.77-17.12,2.48,0,0-3.31,1.87-5.24,2.74,3.78,1.05,7.5,1.63,10.97,1.69,.18,0,.36,0,.54,0,5.48,0,10.05-1.34,13.26-3.89l-2.4-3.02Z" fill="#163133"/>
            <path d="M75.44,73.78c5.4-6.74,8.52-14.79,9.28-23.94,1.02-12.37-3-22.33-11.33-28.03-7.86-5.39-18.72-6.05-27.66-1.71-5.4,2.63-9.6,6.78-12.29,12,.86-.36,1.73-.66,2.61-.89,.93-.25,1.87-.42,2.82-.53,2.2-3.01,5.09-5.43,8.55-7.12,7.72-3.75,17.06-3.19,23.79,1.42,7.14,4.89,10.57,13.6,9.67,24.54-1.28,15.46-10.38,27.93-24.97,34.19-12.46,5.36-24.13,4.36-28.93,.69-.06-.04-.11-.09-.16-.13l-2.41,3.01c3.32,2.67,8.45,4,14.3,4s12.48-1.34,18.72-4.03c7.19-3.09,13.42-7.75,18.01-13.48Z" fill="#163133"/>
          </g>
          <path d="M82.64,50.43c-.71,8.59-3.64,16.14-8.71,22.47-4.3,5.37-10.15,9.75-16.9,12.65-5.86,2.52-12.06,3.78-17.57,3.78s-10.3-1.25-13.42-3.75l.93-1.16c4.8,3.67,16.47,4.67,28.93-.69,14.59-6.27,23.69-18.73,24.97-34.19,.91-10.93-2.53-19.64-9.67-24.54-6.74-4.61-16.07-5.17-23.79-1.42-3.46,1.69-6.35,4.11-8.55,7.12-.94,.11-1.88,.29-2.82,.53,2.47-3.7,5.86-6.68,10.02-8.7,8.39-4.08,18.57-3.45,25.95,1.6,7.82,5.35,11.59,14.69,10.63,26.3Z" fill="#9de3df" mix-blend-mode="multiply"/>
        </g>
        <g>
          <circle cx="23.71" cy="78.57" r="13.04" fill="#1b585c"/>
          <circle cx="23.71" cy="78.57" r="10.94" transform="translate(-28.59 15.32) rotate(-22.8)" fill="#ecf4f3"/>
          <path d="M14.85,72.14c-.95,1.31-1.56,2.75-1.86,4.24,.25-.49,.54-.97,.88-1.42,3.55-4.89,10.39-5.97,15.28-2.43,3.58,2.6,5.12,6.97,4.29,11.04,2.43-4.72,1.13-10.64-3.3-13.85-4.89-3.55-11.73-2.46-15.28,2.43Z" fill="#c4f2f0" mix-blend-mode="multiply"/>
          <g>
            <path d="M28.66,70.98c-.15,.21-.45,.27-.67,.13-3.8-2.38-8.84-1.4-11.48,2.23-2.64,3.63-2.01,8.73,1.43,11.61,.21,.18,.24,.49,.06,.71-.18,.21-.5,.24-.71,.06-3.85-3.21-4.55-8.91-1.6-12.97,2.95-4.06,8.58-5.16,12.83-2.49,.24,.15,.31,.46,.16,.69,0,0-.01,.02-.02,.03Z" fill="#62c9c3"/>
            <path d="M29.38,71.5c-.15,.21-.12,.51,.08,.68,3.44,2.88,4.07,7.97,1.43,11.61-2.64,3.63-7.68,4.61-11.48,2.23-.24-.15-.54-.08-.69,.16-.15,.24-.08,.55,.16,.69,4.25,2.66,9.88,1.57,12.83-2.49,2.95-4.06,2.24-9.76-1.6-12.97-.21-.18-.53-.15-.71,.06,0,0-.01,.02-.02,.03Z" fill="#ff9380"/>
          </g>
          <g>
            <path d="M25.1,77.94c.35,.77,0,1.68-.77,2.02s-1.68,0-2.02-.77c-.35-.77,0-1.68,.77-2.02,.77-.35,1.68,0,2.02,.77Z" fill="#1b585c"/>
            <polygon points="24.12 81.06 20.71 71.91 25.3 80.54 24.12 81.06" fill="#1b585c"/>
          </g>
          <ellipse cx="18.85" cy="83.17" rx="3.3" ry="5.32" transform="translate(-53.11 37.4) rotate(-44.77)" fill="#fff" mix-blend-mode="soft-light"/>
        </g>
        <g>
          <path d="M104.77,78.73l-1.02-2.65c-.28-.71-1.08-1.07-1.79-.79l-1.94,.75,2.02,5.23,1.94-.75c.71-.28,1.07-1.08,.79-1.79Z" fill="#1b585c"/>
          <path d="M77.25,84.02l-1.26,.49c-.8,.31-1.2,1.21-.89,2l1.45,3.76c.31,.8,1.21,1.2,2,.89l1.26-.49-2.57-6.65Z" fill="#1b585c"/>
          <ellipse cx="89.78" cy="83" rx="13.79" ry="10.57" transform="translate(-23.88 37.92) rotate(-21.12)" fill="#163133"/>
          <ellipse cx="93.89" cy="77.11" rx="4.15" ry="6.32" transform="translate(9.04 164.06) rotate(-85.1)" fill="#fff" mix-blend-mode="soft-light" opacity=".3"/>
          <path d="M103.17,81.78c-1.54,3.03-4.53,5.74-8.45,7.25-7.11,2.74-14.57,.55-16.68-4.89-.47-1.21-.63-2.48-.52-3.75-1.25,2.46-1.55,5.14-.6,7.58,2.1,5.45,9.57,7.64,16.68,4.89,5.53-2.14,9.21-6.63,9.58-11.09Z" fill="#9de3df" mix-blend-mode="multiply"/>
          <path d="M94.92,92.63c-3.16-6.44-5.74-13.14-7.72-20.04-.41-1.43-2.55-.56-2.15,.86,1.98,6.9,4.56,13.59,7.72,20.04,.65,1.33,2.8,.48,2.15-.86Z" fill="#1b585c"/>
        </g>
      </g>
      <g>
        <g>
          <path d="M87.39,9.2h0c-1.03-.89-2.59-.78-3.47,.25l-1.61,1.86,3.73,3.22,1.61-1.86c.89-1.03,.78-2.59-.25-3.47Z" fill="#e05753"/>
          <path d="M80.94,16.65h0c-1.03-.89-1.14-2.45-.25-3.47l1.61-1.86,3.73,3.22-1.61,1.86c-.89,1.03-2.45,1.14-3.47,.25Z" fill="#62c9c3"/>
          <path d="M87.39,9.2h0c-.12-.1-.24-.19-.37-.26,.73,.91,.73,2.24-.06,3.15l-1.61,1.86-1.61,1.86c-.79,.91-2.1,1.11-3.11,.52,.09,.12,.2,.22,.31,.33h0c1.03,.89,2.59,.78,3.47-.25l1.61-1.86,1.61-1.86c.89-1.03,.78-2.59-.25-3.47Z" fill="#9de3df" mix-blend-mode="multiply"/>
        </g>
        <g>
          <path d="M22.27,35.06h0c1.18-1.13,1.22-3,.09-4.18l-2.04-2.13-4.26,4.09,2.04,2.13c1.13,1.18,3,1.22,4.18,.09Z" fill="#e05753"/>
          <path d="M14.09,26.54h0c1.18-1.13,3.05-1.09,4.18,.09l2.04,2.13-4.26,4.09-2.04-2.13c-1.13-1.18-1.09-3.05,.09-4.18Z" fill="#62c9c3"/>
          <path d="M22.27,35.06h0c.13-.13,.25-.26,.35-.41-1.17,.77-2.75,.62-3.75-.42l-2.04-2.13-2.04-2.13c-1-1.04-1.08-2.63-.27-3.77-.15,.1-.29,.21-.42,.34h0c-1.18,1.13-1.22,3-.09,4.18l2.04,2.13,2.04,2.13c1.13,1.18,3,1.22,4.18,.09Z" fill="#9de3df" mix-blend-mode="multiply"/>
        </g>
      </g>
      <g>
        <g>
          <path d="M102.27,28.84c-2.14,2-5.68,3.14-7.12,3.12-.18,0-.35-.05-.51-.13-1.04-.54-2.93-2.41-4.1-4.57-.28-.51-.51-1.03-.69-1.56-1.15-3.42,.39-7.06,3.15-7.24,2.67-.18,4.44,1.83,4.58,2.77,.57-.77,3.08-1.69,5.35-.27,.28,.18,.53,.39,.73,.64,1.49,1.77,.93,5.07-1.39,7.23Z" fill="#e05753"/>
          <path d="M102.27,28.84c-2.14,2-5.68,3.14-7.12,3.12-.18,0-.35-.05-.51-.13-1.04-.54-2.93-2.41-4.1-4.57,1.37,.94,3,1.5,4.66,1.59,2.35,.12,4.74-.71,6.5-2.27,.82-.73,1.52-1.62,1.87-2.65,.2-.58,.27-1.21,.21-1.83-.02-.17-.06-.34-.11-.51,1.49,1.77,.93,5.07-1.39,7.23Z" fill="#ffc2b8" mix-blend-mode="multiply"/>
          <path d="M99.46,25.23l-1.55-.39,.39-1.55c.04-.14-.05-.29-.19-.33l-1.81-.46c-.14-.04-.29,.05-.33,.19l-.39,1.55-1.55-.39c-.14-.04-.29,.05-.33,.19l-.46,1.81c-.04,.14,.05,.29,.19,.33l1.55,.39-.39,1.55c-.04,.14,.05,.29,.19,.33l1.81,.46c.14,.04,.29-.05,.33-.19l.39-1.55,1.55,.39c.14,.04,.29-.05,.33-.19l.46-1.81c.04-.14-.05-.29-.19-.33Z" fill="#fff"/>
          <path d="M94.57,23.21c.02,1.85-.88,3.37-2.03,3.38-1.14,.02-2.09-1.47-2.12-3.33-.02-1.85,.88-3.37,2.03-3.38,1.14-.02,2.09,1.47,2.12,3.33Z" fill="#fff" mix-blend-mode="soft-light" opacity=".5"/>
        </g>
        <g>
          <path d="M36.38,18.38c-.39,2.28-2.07,4.7-2.99,5.39-.11,.08-.24,.14-.38,.16-.91,.16-3-.11-4.78-.91-.42-.19-.82-.4-1.18-.65-2.37-1.6-3.14-4.63-1.48-6.08,1.6-1.39,3.67-.98,4.22-.45,0-.76,1.13-2.54,3.24-2.74,.26-.02,.52,0,.77,.05,1.79,.4,3.01,2.75,2.59,5.22Z" fill="#e05753"/>
          <path d="M36.38,18.38c-.39,2.28-2.07,4.7-2.99,5.39-.11,.08-.24,.14-.38,.16-.91,.16-3-.11-4.78-.91,1.31-.07,2.61-.49,3.7-1.23,1.54-1.05,2.65-2.72,3.01-4.54,.17-.85,.18-1.75-.1-2.57-.16-.46-.41-.9-.74-1.25-.1-.1-.2-.19-.31-.27,1.79,.4,3.01,2.75,2.59,5.22Z" fill="#ffc2b8" mix-blend-mode="multiply"/>
          <path d="M32.88,17.45l-1.16,.5-.5-1.16c-.05-.11-.17-.16-.28-.11l-1.36,.58c-.11,.05-.16,.17-.11,.28l.5,1.16-1.16,.5c-.11,.05-.16,.17-.11,.28l.58,1.36c.05,.11,.17,.16,.28,.11l1.16-.5,.5,1.16c.05,.11,.17,.16,.28,.11l1.36-.58c.11-.05,.16-.17,.11-.28l-.5-1.16,1.16-.5c.11-.05,.16-.17,.11-.28l-.58-1.36c-.05-.11-.17-.16-.28-.11Z" fill="#fff"/>
          <path d="M28.84,18.52c.9,1.16,1.06,2.55,.34,3.1-.71,.56-2.03,.07-2.93-1.08-.9-1.16-1.06-2.55-.34-3.1,.71-.56,2.03-.07,2.93,1.08Z" fill="#fff" mix-blend-mode="soft-light" opacity=".5"/>
        </g>
      </g>
      <g>
        <path d="M117.09,77.25h-2.49v-2.49c0-.1-.08-.19-.19-.19h-2.3c-.1,0-.19,.08-.19,.19v2.49h-2.49c-.1,0-.19,.08-.19,.19v2.3c0,.1,.08,.19,.19,.19h2.49v2.49c0,.1,.08,.19,.19,.19h2.3c.1,0,.19-.08,.19-.19v-2.49h2.49c.1,0,.19-.08,.19-.19v-2.3c0-.1-.08-.19-.19-.19Z" fill="#b85644"/>
        <path d="M14.98,97.35h-2.49v-2.49c0-.1-.08-.19-.19-.19h-2.3c-.1,0-.19,.08-.19,.19v2.49h-2.49c-.1,0-.19,.08-.19,.19v2.3c0,.1,.08,.19,.19,.19h2.49v2.49c0,.1,.08,.19,.19,.19h2.3c.1,0,.19-.08,.19-.19v-2.49h2.49c.1,0,.19-.08,.19-.19v-2.3c0-.1-.08-.19-.19-.19Z" fill="#b85644"/>
        <path d="M19.12,8.73h-1.33v-1.33c0-.06-.05-.1-.1-.1h-1.23c-.06,0-.1,.05-.1,.1v1.33h-1.33c-.06,0-.1,.05-.1,.1v1.23c0,.06,.05,.1,.1,.1h1.33v1.33c0,.06,.05,.1,.1,.1h1.23c.06,0,.1-.05,.1-.1v-1.33h1.33c.06,0,.1-.05,.1-.1v-1.23c0-.06-.05-.1-.1-.1Z" fill="#b85644"/>
        <path d="M99.55,103.4h-1.33v-1.33c0-.06-.05-.1-.1-.1h-1.23c-.06,0-.1,.05-.1,.1v1.33h-1.33c-.06,0-.1,.05-.1,.1v1.23c0,.06,.05,.1,.1,.1h1.33v1.33c0,.06,.05,.1,.1,.1h1.23c.06,0,.1-.05,.1-.1v-1.33h1.33c.06,0,.1-.05,.1-.1v-1.23c0-.06-.05-.1-.1-.1Z" fill="#b85644"/>
        <path d="M6.32,63.38h-2.01v-2.01c0-.08-.07-.15-.15-.15h-1.85c-.08,0-.15,.07-.15,.15v2.01H.15c-.08,0-.15,.07-.15,.15v1.85c0,.08,.07,.15,.15,.15H2.16v2.01c0,.08,.07,.15,.15,.15h1.85c.08,0,.15-.07,.15-.15v-2.01h2.01c.08,0,.15-.07,.15-.15v-1.85c0-.08-.07-.15-.15-.15Z" fill="#b85644"/>
        <path d="M102.99,2.16h-2.01V.15c0-.08-.07-.15-.15-.15h-1.85c-.08,0-.15,.07-.15,.15V2.16h-2.01c-.08,0-.15,.07-.15,.15v1.85c0,.08,.07,.15,.15,.15h2.01v2.01c0,.08,.07,.15,.15,.15h1.85c.08,0,.15-.07,.15-.15v-2.01h2.01c.08,0,.15-.07,.15-.15v-1.85c0-.08-.07-.15-.15-.15Z" fill="#b85644"/>
      </g>
    </g>
  </g>
</svg>