<?xml version="1.0" encoding="UTF-8"?>
<svg xmlns="http://www.w3.org/2000/svg" viewBox="0 0 422.28 413.16">
  <g isolation="isolate">
    <g id="OBJECTS">
      <g>
        <path d="M333.07,15.47c-60.94-19.73-113.97,16.46-122.71,37.65-8.84-21.19-61.77-57.38-122.71-37.65C24.48,35.92,9.94,129.54,56.75,202.26c40.55,62.99,124.07,112.71,153.61,115.44,29.54-2.73,113.06-52.45,153.61-115.44,46.81-72.72,32.27-166.34-30.9-186.79Z" fill="#ffcfc7"/>
        <path d="M347.65,262.39h-.04c-3.14-.02-5.87-2.17-6.63-5.23l-35.53-144.25-11.05,41.66c-.8,3.01-3.52,5.11-6.64,5.11h-12.11c-8.27,38.59-19.73,92.6-20.26,96.49,.08-.61,.06-1.3-.09-2.01,.22,2.56-.13,5.97-3.98,7.65-2.36,1.03-5.11,.66-7.1-.97-2.33-1.9-2.73-3.81-2.35-6.85-.17,.72-.21,1.43-.13,2.09-.57-4.8-16.77-90.24-30.14-160.23l-18.25,63.02c-.85,2.94-3.54,4.96-6.6,4.96h-6.67l-3.66,10.79c-.96,2.83-3.6,4.73-6.63,4.66-2.99-.05-5.6-2.03-6.46-4.9l-4.91-16.41-22.41,91.16c-.76,3.1-3.56,5.26-6.76,5.23-3.2-.04-5.94-2.28-6.62-5.4l-24.91-114.17-26.27,68.52c-1.02,2.66-3.57,4.41-6.41,4.41H19.22v-13.74H60.31l32.81-85.57c1.09-2.83,3.91-4.63,6.93-4.39,3.03,.23,5.54,2.42,6.19,5.38l23.5,107.69,21.36-86.89c.74-3.01,3.4-5.15,6.5-5.23,3.11-.07,5.86,1.93,6.75,4.9l6.5,21.73c1.19-.96,2.7-1.51,4.3-1.51h6.43l24.78-85.57c.88-3.05,3.76-5.11,6.92-4.95,3.17,.15,5.83,2.45,6.43,5.57,.09,.47,9.14,47.76,18.01,94.47,4.63,24.37,8.4,44.35,11.24,59.52,1.05-5,2.22-10.51,3.49-16.51,5.44-25.64,10.93-51.24,10.93-51.24,.68-3.17,3.48-5.43,6.72-5.43h12.38l16.58-62.51c.8-3.01,3.53-5.11,6.64-5.11,.02,0,.04,0,.06,0,3.14,.03,5.86,2.18,6.61,5.23l35.46,143.95,19.4-74.76c.79-3.03,3.52-5.14,6.65-5.14h33.95v13.74h-28.63l-24.88,95.91c-.79,3.03-3.52,5.14-6.65,5.14Z" fill="#fff"/>
      </g>
      <g>
        <rect x="93.58" y="220.64" width="23.9" height="19.01" transform="translate(333.19 340.93) rotate(140.59)" fill="#1b585c"/>
        <rect x="94.94" y="224.43" width="11.95" height="19.01" transform="translate(-125.58 117.28) rotate(-39.42)" fill="#9de3df" mix-blend-mode="multiply"/>
        <rect x="95.21" y="235.91" width="36.4" height="7.61" transform="translate(353.22 352.91) rotate(140.58)" fill="#62c9c3"/>
        <polygon points="32.47 168.19 41.21 151.87 58.91 146.46 111.34 210.25 84.9 231.98 32.47 168.19" fill="#b5f2ef"/>
        <polygon points="95.77 223.05 43.35 159.26 48.49 149.65 41.21 151.87 32.47 168.19 84.9 231.98 95.77 223.05" fill="#9de3df" mix-blend-mode="multiply"/>
        <rect x="77.21" y="217.46" width="42.51" height="8.15" transform="translate(315.2 330.17) rotate(140.58)" fill="#006a71"/>
        <g>
          <rect x="91.48" y="208.84" width="13.34" height="1.32" transform="translate(307 309.03) rotate(140.58)" fill="#006a71"/>
          <rect x="92.64" y="205.27" width="9.78" height="1.32" transform="translate(303.62 303.1) rotate(140.59)" fill="#006a71"/>
          <rect x="90.63" y="202.83" width="9.78" height="1.32" transform="translate(298.52 300.05) rotate(140.58)" fill="#006a71"/>
          <rect x="88.63" y="200.39" width="9.78" height="1.32" transform="translate(293.42 297) rotate(140.59)" fill="#006a71"/>
          <rect x="86.62" y="197.95" width="9.78" height="1.32" transform="translate(288.31 293.95) rotate(140.58)" fill="#006a71"/>
          <rect x="81.46" y="196.64" width="13.34" height="1.32" transform="translate(281.49 293.78) rotate(140.59)" fill="#006a71"/>
          <rect x="82.61" y="193.07" width="9.78" height="1.32" transform="translate(278.11 287.85) rotate(140.58)" fill="#006a71"/>
          <rect x="80.61" y="190.63" width="9.78" height="1.32" transform="translate(273.01 284.8) rotate(140.59)" fill="#006a71"/>
          <rect x="78.6" y="188.19" width="9.78" height="1.32" transform="translate(267.9 281.75) rotate(140.58)" fill="#006a71"/>
          <rect x="76.6" y="185.75" width="9.78" height="1.32" transform="translate(262.8 278.7) rotate(140.59)" fill="#006a71"/>
          <rect x="71.43" y="184.45" width="13.34" height="1.32" transform="translate(255.98 278.52) rotate(140.58)" fill="#006a71"/>
          <rect x="72.59" y="180.87" width="9.78" height="1.32" transform="translate(252.6 272.6) rotate(140.59)" fill="#006a71"/>
          <rect x="70.58" y="178.44" width="9.78" height="1.32" transform="translate(247.49 269.54) rotate(140.58)" fill="#006a71"/>
          <rect x="68.58" y="176" width="9.78" height="1.32" transform="translate(242.39 266.49) rotate(140.58)" fill="#006a71"/>
          <rect x="66.57" y="173.56" width="9.78" height="1.32" transform="translate(237.29 263.44) rotate(140.58)" fill="#006a71"/>
          <rect x="61.41" y="172.25" width="13.34" height="1.32" transform="translate(230.46 263.27) rotate(140.58)" fill="#006a71"/>
          <rect x="51.35" y="160.01" width="13.34" height="1.32" transform="translate(204.87 247.97) rotate(140.58)" fill="#006a71"/>
          <rect x="62.56" y="168.68" width="9.78" height="1.32" transform="translate(227.08 257.34) rotate(140.58)" fill="#006a71"/>
          <rect x="60.56" y="166.24" width="9.78" height="1.32" transform="translate(221.98 254.29) rotate(140.59)" fill="#006a71"/>
          <rect x="58.55" y="163.8" width="9.78" height="1.32" transform="translate(216.88 251.24) rotate(140.59)" fill="#006a71"/>
          <rect x="56.58" y="161.4" width="9.78" height="1.32" transform="translate(211.86 248.23) rotate(140.59)" fill="#006a71"/>
        </g>
        <polygon points="21.25 129.62 21.87 126.31 40.15 148.55 38.15 150.19 21.25 129.62" fill="#1b585c"/>
        <g>
          <path d="M35.87,149.48l4.03-3.31c.85-.7,2.1-.57,2.79,.27l2.23,2.72-7.1,5.83-2.23-2.72c-.7-.85-.57-2.1,.27-2.79Z" fill="#006a71"/>
          <rect x="36.09" y="151.38" width="11.61" height="2.65" transform="translate(-87.43 61.33) rotate(-39.42)" fill="#006a71"/>
        </g>
      </g>
      <g>
        <path d="M395.47,243.36c2.07-8.3-.9-17.76-7.91-22.81-2.7-1.95-6.1,2-3.38,3.96,7.32,5.27,8.62,15.59,3.94,23.08-5.36,8.57-15.97,12.01-25.63,11.17-10.17-.88-19.96-5.47-27.83-11.84-4.69-3.8-8.33-8.15-11.49-12.91,7.76-8.03,13.25-19.08,16.96-29.07,1.16-3.12-3.55-5.35-4.71-2.21-3.26,8.79-8.08,19.2-15.01,26.82-1.43-2.45-2.77-4.98-4.11-7.58-4.18-8.17-9.5-16.87-18.61-20.14-8.09-2.91-16.68-.56-21.57,6.68-4.58,6.8-4.94,15.81-1.37,23.14,3.87,7.94,11.89,12.81,20.6,13.6,9.51,.86,17.4-2.31,23.92-7.64,2.47,3.69,5.26,7.17,8.65,10.35,12.53,11.77,32.29,20.25,49.39,14.2,8.53-3.02,15.93-9.84,18.16-18.78Zm-99.74-3.31c-8.97-.95-16.61-6.97-17.99-16.14-1.31-8.71,4.29-19.09,14.19-18.15,9.95,.94,15.68,10.56,19.78,18.57,1.57,3.06,3.15,6.05,4.85,8.94-5.67,4.8-12.54,7.66-20.83,6.78Z" fill="#62c9c3"/>
        <path d="M396.63,145.94c-.83-3.04-2.95-5.56-5.8-6.89l-7.17-3.36-2.48,5.3,7.17,3.36c1.3,.61,2.26,1.75,2.64,3.14,.38,1.38,.13,2.86-.68,4.04l-34.82,50.98c-1.36,1.99-3.93,2.69-6.11,1.67l-19.15-8.97c-2.18-1.02-3.29-3.44-2.63-5.76l16.87-59.39c.39-1.38,1.37-2.51,2.67-3.11,1.31-.6,2.8-.59,4.1,.02l7.17,3.36,2.48-5.3-7.17-3.36c-2.86-1.34-6.14-1.35-9.01-.04-2.87,1.31-5.01,3.8-5.87,6.84l-16.87,59.39c-1.45,5.09,.98,10.41,5.78,12.66l19.15,8.97c4.79,2.24,10.44,.7,13.42-3.67l34.82-50.98c1.78-2.61,2.32-5.84,1.49-8.89Z" fill="#62c9c3"/>
        <path d="M346.06,211.24l-19.15-8.97c-5.66-2.65-8.53-8.94-6.83-14.96l7.94-27.96c.32-1.14,1.51-1.81,2.66-1.48l5.24,1.49c1.14,.32,1.81,1.51,1.48,2.66l-7.94,27.96c-.4,1.39,.27,2.85,1.58,3.46l19.15,8.97c1.31,.61,2.85,.19,3.67-1l16.39-24c.67-.98,2.01-1.23,2.99-.56l4.5,3.08c.98,.67,1.23,2.01,.56,2.99l-16.39,24c-3.53,5.16-10.2,6.99-15.86,4.33Z" fill="#163133"/>
        <g>
          <path d="M358.58,120.99h2.28c2.4,0,4.34,1.94,4.34,4.34v4.77c0,2.4-1.94,4.34-4.34,4.34h-2.28c-2.4,0-4.34-1.94-4.34-4.34v-4.77c0-2.4,1.94-4.34,4.34-4.34Z" transform="translate(91.49 399.31) rotate(-64.9)" fill="#163133"/>
          <path d="M381.19,131.58h2.28c2.4,0,4.34,1.94,4.34,4.34v4.77c0,2.4-1.94,4.34-4.34,4.34h-2.28c-2.4,0-4.34-1.94-4.34-4.34v-4.77c0-2.4,1.94-4.34,4.34-4.34Z" transform="translate(94.92 425.89) rotate(-64.9)" fill="#163133"/>
        </g>
        <circle cx="381.1" cy="218.33" r="14.59" transform="translate(-57.54 240.56) rotate(-32.71)" fill="#1b585c"/>
        <path d="M389.8,222.4c-2.25,4.8-7.97,6.87-12.77,4.62-4.8-2.25-6.87-7.97-4.62-12.77,2.25-4.8,7.97-6.87,12.77-4.62,4.8,2.25,6.87,7.97,4.62,12.77Z" fill="#006a71"/>
      </g>
      <g>
        <path d="M317.57,247.74c-24.58,34.55-79.23,71.33-106.76,76.79-27.53-5.46-82.18-42.24-106.76-76.79-8.05-11.33-14.63-26.04-18.38-41.64-7.32-30.44-3.86-64.17,20.42-82.31,37.81-28.25,92.37-8.57,104.71,16.49,11.86-24.1,62.78-43.23,100.3-19.52,1.5,.93,2.96,1.95,4.41,3.03,36.72,27.44,25.82,90.52,2.05,123.95Z" fill="#e05753"/>
        <path d="M317.57,247.74c-24.58,34.55-79.23,71.33-106.76,76.79-16.31-3.24-42.15-17.47-65.6-35.72-16.13-12.54-31.14-26.99-41.15-41.07-8.05-11.32-14.63-26.04-18.38-41.64,11.57,18.48,29.3,33.47,49.41,42.18,33.25,14.39,71.73,13.26,106.41,2.76,19.8-6,39.11-15.23,53.59-30.01,14.02-14.31,22.92-33.53,24.74-53.49,1.45-15.99-1.65-32.36-8.72-46.78,1.5,.94,2.96,1.96,4.41,3.03,5.23,3.91,9.49,8.54,12.88,13.7,20.48,31.11,9.56,81.59-10.83,110.25Z" fill="#ffc2b8" mix-blend-mode="multiply"/>
        <ellipse cx="134.16" cy="160.49" rx="48.16" ry="35.02" transform="translate(-74.19 141.87) rotate(-45)" fill="#fff" mix-blend-mode="soft-light" opacity=".5"/>
        <path d="M317.57,247.74c-24.58,34.55-79.23,71.33-106.76,76.79-16.31-3.24-42.15-17.47-65.6-35.72,42.63,6.48,87.45-1.9,124.73-23.62,24.13-14.05,45.56-34.14,56.76-59.73,9.34-21.33,10.65-46.74,1.7-67.97,20.48,31.11,9.56,81.59-10.83,110.25Z" fill="#ffc2b8" mix-blend-mode="multiply"/>
      </g>
      <g>
        <g>
          <g>
            <path d="M309.2,299.66c-13.36,10.63-35.84,13.57-61.65,8.93,0,0-11.92,6.73-18.88,9.85,13.62,3.8,27,5.88,39.48,6.08,.65,.01,1.3,.02,1.95,.02,19.72,0,36.2-4.83,47.75-14.01l-8.64-10.87Z" fill="#163133"/>
            <path d="M271.61,265.66c19.44-24.26,30.68-53.26,33.41-86.21,3.69-44.55-10.79-80.4-40.79-100.93-28.3-19.39-67.39-21.79-99.58-6.14-19.46,9.46-34.56,24.42-44.25,43.22,3.08-1.31,6.22-2.37,9.38-3.2,3.36-.89,6.75-1.53,10.14-1.92,7.93-10.82,18.33-19.55,30.8-25.62,27.79-13.51,61.41-11.5,85.66,5.1,25.7,17.61,38.07,48.98,34.8,88.34-4.61,55.67-37.37,100.55-89.89,123.12-44.86,19.29-86.87,15.69-104.16,2.49-.2-.15-.39-.31-.58-.46l-8.69,10.83c11.97,9.61,30.43,14.41,51.49,14.41s44.93-4.84,67.42-14.51c25.9-11.14,48.32-27.91,64.84-48.52Z" fill="#163133"/>
          </g>
          <path d="M297.56,181.56c-2.57,30.92-13.12,58.13-31.35,80.89-15.5,19.34-36.54,35.09-60.85,45.54-21.11,9.08-43.41,13.61-63.26,13.61s-37.08-4.51-48.32-13.52l3.35-4.17c17.29,13.2,59.3,16.8,104.16-2.49,52.52-22.57,85.28-67.45,89.89-123.12,3.27-39.36-9.1-70.73-34.8-88.34-24.25-16.6-57.87-18.61-85.66-5.1-12.47,6.07-22.87,14.8-30.8,25.62-3.39,.39-6.78,1.03-10.14,1.92,8.91-13.32,21.11-24.04,36.06-31.31,30.2-14.69,66.88-12.43,93.44,5.76,28.14,19.27,41.74,52.91,38.28,94.71Z" fill="#9de3df" mix-blend-mode="multiply"/>
        </g>
        <g>
          <circle cx="85.35" cy="282.88" r="46.95" fill="#1b585c"/>
          <circle cx="85.35" cy="282.88" r="39.38" transform="translate(-102.93 55.16) rotate(-22.8)" fill="#ecf4f3"/>
          <path d="M53.48,259.75c-3.41,4.7-5.62,9.91-6.71,15.25,.91-1.76,1.96-3.48,3.16-5.13,12.78-17.6,37.41-21.51,55.01-8.73,12.9,9.37,18.43,25.09,15.45,39.76,8.76-16.99,4.06-38.3-11.89-49.88-17.6-12.78-42.23-8.87-55.01,8.73Z" fill="#c4f2f0" mix-blend-mode="multiply"/>
          <g>
            <path d="M103.21,255.57c-.55,.76-1.61,.98-2.43,.47-13.68-8.58-31.84-5.05-41.34,8.04-9.5,13.08-7.23,31.44,5.16,41.8,.77,.64,.87,1.78,.23,2.55-.64,.77-1.78,.87-2.55,.23-13.85-11.57-16.38-32.08-5.77-46.7,10.61-14.62,30.9-18.56,46.19-8.98,.85,.53,1.1,1.65,.57,2.5-.02,.04-.05,.07-.07,.1Z" fill="#62c9c3"/>
            <path d="M105.8,257.45c-.55,.76-.43,1.84,.31,2.45,12.39,10.35,14.66,28.71,5.16,41.8-9.5,13.08-27.66,16.61-41.34,8.04-.85-.53-1.96-.28-2.5,.57-.53,.85-.27,1.96,.57,2.5,15.29,9.59,35.58,5.64,46.19-8.98,10.61-14.62,8.08-35.13-5.77-46.7-.77-.64-1.91-.54-2.55,.23-.03,.03-.05,.07-.08,.1Z" fill="#ff9380"/>
          </g>
          <g>
            <path d="M90.38,280.62c1.25,2.78,.01,6.04-2.77,7.29s-6.04,.01-7.29-2.77c-1.25-2.78-.01-6.04,2.77-7.29,2.78-1.25,6.04-.01,7.29,2.77Z" fill="#1b585c"/>
            <polygon points="86.86 291.88 74.57 258.93 91.08 289.98 86.86 291.88" fill="#1b585c"/>
          </g>
          <ellipse cx="67.87" cy="299.48" rx="11.89" ry="19.17" transform="translate(-191.22 134.67) rotate(-44.77)" fill="#fff" mix-blend-mode="soft-light"/>
        </g>
        <g>
          <path d="M377.25,283.48l-3.68-9.54c-.99-2.57-3.87-3.84-6.44-2.85l-7,2.7,7.27,18.83,7-2.7c2.57-.99,3.84-3.87,2.85-6.44Z" fill="#1b585c"/>
          <path d="M278.16,302.51l-4.54,1.75c-2.87,1.11-4.3,4.34-3.19,7.21l5.23,13.54c1.11,2.87,4.34,4.3,7.21,3.19l4.54-1.75-9.25-23.95Z" fill="#1b585c"/>
          <ellipse cx="323.25" cy="298.86" rx="49.67" ry="38.07" transform="translate(-85.97 136.55) rotate(-21.12)" fill="#163133"/>
          <ellipse cx="338.04" cy="277.63" rx="14.93" ry="22.76" transform="translate(32.55 590.71) rotate(-85.1)" fill="#fff" mix-blend-mode="soft-light" opacity=".3"/>
          <path d="M371.47,294.45c-5.55,10.92-16.31,20.65-30.44,26.11-25.59,9.88-52.47,2-60.05-17.62-1.68-4.35-2.26-8.91-1.88-13.48-4.5,8.86-5.57,18.51-2.18,27.3,7.58,19.61,34.46,27.5,60.05,17.62,19.91-7.69,33.17-23.88,34.5-39.92Z" fill="#9de3df" mix-blend-mode="multiply"/>
          <path d="M341.75,333.52c-11.37-23.2-20.66-47.31-27.8-72.14-1.48-5.14-9.2-2.01-7.73,3.09,7.14,24.83,16.43,48.94,27.8,72.14,2.34,4.78,10.09,1.73,7.73-3.09Z" fill="#1b585c"/>
        </g>
      </g>
      <g>
        <g>
          <path d="M314.64,33.11h0c-3.71-3.2-9.31-2.79-12.51,.91l-5.8,6.71,13.42,11.6,5.8-6.71c3.2-3.71,2.79-9.31-.91-12.51Z" fill="#e05753"/>
          <path d="M291.45,59.96h0c-3.71-3.2-4.12-8.8-.91-12.51l5.8-6.71,13.42,11.6-5.8,6.71c-3.2,3.71-8.8,4.12-12.51,.91Z" fill="#62c9c3"/>
          <path d="M314.64,33.11h0c-.42-.36-.86-.67-1.32-.94,2.63,3.27,2.63,8.05-.21,11.34l-5.8,6.71-5.8,6.71c-2.84,3.29-7.57,3.98-11.19,1.86,.33,.42,.71,.81,1.13,1.17h0c3.71,3.2,9.31,2.79,12.51-.91l5.8-6.71,5.8-6.71c3.2-3.71,2.79-9.31-.91-12.51Z" fill="#9de3df" mix-blend-mode="multiply"/>
        </g>
        <g>
          <path d="M80.17,126.25h0c4.24-4.07,4.38-10.8,.31-15.04l-7.36-7.67-15.35,14.72,7.36,7.67c4.07,4.24,10.8,4.38,15.04,.31Z" fill="#e05753"/>
          <path d="M50.72,95.55h0c4.24-4.07,10.97-3.93,15.04,.31l7.36,7.67-15.35,14.72-7.36-7.67c-4.07-4.24-3.93-10.97,.31-15.04Z" fill="#62c9c3"/>
          <path d="M80.17,126.25h0c.48-.46,.9-.95,1.27-1.47-4.2,2.77-9.91,2.24-13.51-1.53l-7.36-7.67-7.36-7.67c-3.61-3.76-3.9-9.48-.96-13.57-.53,.35-1.05,.75-1.52,1.21h0c-4.24,4.07-4.38,10.8-.31,15.04l7.36,7.67,7.36,7.67c4.07,4.24,10.8,4.38,15.04,.31Z" fill="#9de3df" mix-blend-mode="multiply"/>
        </g>
      </g>
      <g>
        <g>
          <path d="M368.22,103.83c-7.69,7.2-20.45,11.32-25.65,11.25-.64,0-1.26-.16-1.83-.46-3.74-1.95-10.54-8.66-14.77-16.45-1-1.83-1.85-3.72-2.49-5.61-4.15-12.31,1.41-25.41,11.36-26.07,9.6-.64,15.97,6.58,16.49,9.99,2.05-2.76,11.1-6.09,19.25-.98,1.02,.64,1.9,1.41,2.64,2.29,5.37,6.36,3.34,18.25-4.99,26.04Z" fill="#e05753"/>
          <path d="M368.22,103.83c-7.69,7.2-20.45,11.32-25.65,11.25-.64,0-1.26-.16-1.83-.46-3.74-1.95-10.54-8.66-14.77-16.45,4.94,3.37,10.8,5.41,16.77,5.73,8.46,.45,17.06-2.55,23.4-8.16,2.95-2.61,5.46-5.82,6.72-9.55,.71-2.1,.99-4.37,.75-6.57-.07-.63-.22-1.24-.39-1.82,5.37,6.36,3.34,18.25-4.99,26.04Z" fill="#ffc2b8" mix-blend-mode="multiply"/>
          <path d="M358.1,90.83l-5.58-1.41,1.41-5.58c.13-.52-.18-1.04-.7-1.17l-6.51-1.64c-.52-.13-1.04,.18-1.17,.7l-1.41,5.58-5.58-1.41c-.52-.13-1.04,.18-1.17,.7l-1.64,6.51c-.13,.52,.18,1.04,.7,1.17l5.58,1.41-1.41,5.58c-.13,.52,.18,1.04,.7,1.17l6.51,1.64c.52,.13,1.04-.18,1.17-.7l1.41-5.58,5.58,1.41c.52,.13,1.04-.18,1.17-.7l1.64-6.51c.13-.52-.18-1.04-.7-1.17Z" fill="#fff"/>
          <path d="M340.51,83.58c.09,6.67-3.18,12.12-7.3,12.18-4.12,.06-7.53-5.31-7.62-11.98-.09-6.67,3.18-12.12,7.29-12.18,4.12-.06,7.53,5.31,7.62,11.98Z" fill="#fff" mix-blend-mode="soft-light" opacity=".5"/>
        </g>
        <g>
          <path d="M131.01,66.17c-1.4,8.23-7.46,16.94-10.78,19.39-.41,.3-.87,.5-1.37,.59-3.29,.57-10.8-.41-17.2-3.28-1.51-.68-2.95-1.45-4.26-2.34-8.52-5.77-11.3-16.69-5.34-21.88,5.75-5,13.22-3.51,15.18-1.61-.03-2.73,4.08-9.16,11.66-9.85,.95-.09,1.87-.02,2.76,.18,6.43,1.43,10.85,9.9,9.34,18.81Z" fill="#e05753"/>
          <path d="M131.01,66.17c-1.4,8.23-7.46,16.94-10.78,19.39-.41,.3-.87,.5-1.37,.59-3.29,.57-10.8-.41-17.2-3.28,4.73-.24,9.4-1.77,13.32-4.43,5.55-3.77,9.53-9.78,10.84-16.36,.61-3.06,.65-6.29-.35-9.24-.56-1.67-1.47-3.23-2.68-4.5-.35-.36-.73-.67-1.12-.96,6.43,1.43,10.85,9.9,9.34,18.81Z" fill="#ffc2b8" mix-blend-mode="multiply"/>
          <path d="M118.39,62.83l-4.19,1.79-1.79-4.19c-.17-.39-.61-.57-1-.4l-4.89,2.09c-.39,.17-.57,.61-.4,1l1.79,4.19-4.19,1.79c-.39,.17-.57,.61-.4,1l2.09,4.89c.17,.39,.61,.57,1,.4l4.19-1.79,1.79,4.19c.17,.39,.61,.57,1,.4l4.89-2.09c.39-.17,.57-.61,.4-1l-1.79-4.19,4.19-1.79c.39-.17,.57-.61,.4-1l-2.09-4.89c-.17-.39-.61-.57-1-.4Z" fill="#fff"/>
          <path d="M103.83,66.69c3.26,4.16,3.81,9.17,1.24,11.18-2.57,2.01-7.29,.27-10.55-3.9-3.26-4.16-3.81-9.17-1.24-11.18,2.57-2.01,7.29-.27,10.55,3.9Z" fill="#fff" mix-blend-mode="soft-light" opacity=".5"/>
        </g>
      </g>
      <g>
        <text transform="translate(183.82 362.95)" fill="#006a71" font-family="Montserrat-Regular, Montserrat" font-size="16.17" letter-spacing=".46em"><tspan x="0" y="0">HEH</tspan></text>
        <text transform="translate(104.6 387.03)" fill="#b85644" font-family="Montserrat-Black, Montserrat" font-size="21.28" font-weight="800"><tspan x="0" y="0" letter-spacing=".05em">P</tspan><tspan x="16.88" y="0" letter-spacing=".06em">H</tspan><tspan x="35.26" y="0" letter-spacing=".04em">Y</tspan><tspan x="51.33" y="0" letter-spacing=".06em">SI</tspan><tspan x="75.31" y="0" letter-spacing=".05em">O</tspan><tspan x="94.43" y="0" letter-spacing=".06em">THERA</tspan><tspan x="179.17" y="0" letter-spacing=".05em">P</tspan><tspan x="196.04" y="0" letter-spacing=".06em">Y</tspan></text>
      </g>
      <g>
        <path d="M421.6,278.14h-8.96v-8.96c0-.38-.31-.68-.68-.68h-8.28c-.38,0-.68,.31-.68,.68v8.96h-8.96c-.38,0-.68,.31-.68,.68v8.28c0,.38,.31,.68,.68,.68h8.96v8.96c0,.38,.31,.68,.68,.68h8.28c.38,0,.68-.31,.68-.68v-8.96h8.96c.38,0,.68-.31,.68-.68v-8.28c0-.38-.31-.68-.68-.68Z" fill="#b85644"/>
        <path d="M53.93,350.5h-8.96v-8.96c0-.38-.31-.68-.68-.68h-8.28c-.38,0-.68,.31-.68,.68v8.96h-8.96c-.38,0-.68,.31-.68,.68v8.28c0,.38,.31,.68,.68,.68h8.96v8.96c0,.38,.31,.68,.68,.68h8.28c.38,0,.68-.31,.68-.68v-8.96h8.96c.38,0,.68-.31,.68-.68v-8.28c0-.38-.31-.68-.68-.68Z" fill="#b85644"/>
        <path d="M68.83,31.43h-4.78v-4.78c0-.2-.16-.36-.36-.36h-4.42c-.2,0-.36,.16-.36,.36v4.78h-4.78c-.2,0-.36,.16-.36,.36v4.42c0,.2,.16,.36,.36,.36h4.78v4.78c0,.2,.16,.36,.36,.36h4.42c.2,0,.36-.16,.36-.36v-4.78h4.78c.2,0,.36-.16,.36-.36v-4.42c0-.2-.16-.36-.36-.36Z" fill="#b85644"/>
        <path d="M358.44,372.29h-4.78v-4.78c0-.2-.16-.36-.36-.36h-4.42c-.2,0-.36,.16-.36,.36v4.78h-4.78c-.2,0-.36,.16-.36,.36v4.42c0,.2,.16,.36,.36,.36h4.78v4.78c0,.2,.16,.36,.36,.36h4.42c.2,0,.36-.16,.36-.36v-4.78h4.78c.2,0,.36-.16,.36-.36v-4.42c0-.2-.16-.36-.36-.36Z" fill="#b85644"/>
        <path d="M22.77,228.19h-7.22v-7.22c0-.3-.25-.55-.55-.55h-6.67c-.3,0-.55,.25-.55,.55v7.22H.55c-.3,0-.55,.25-.55,.55v6.67c0,.3,.25,.55,.55,.55H7.77v7.22c0,.3,.25,.55,.55,.55h6.67c.3,0,.55-.25,.55-.55v-7.22h7.22c.3,0,.55-.25,.55-.55v-6.67c0-.3-.25-.55-.55-.55Z" fill="#b85644"/>
        <path d="M370.83,7.77h-7.22V.55c0-.3-.25-.55-.55-.55h-6.67c-.3,0-.55,.25-.55,.55V7.77h-7.22c-.3,0-.55,.25-.55,.55v6.67c0,.3,.25,.55,.55,.55h7.22v7.22c0,.3,.25,.55,.55,.55h6.67c.3,0,.55-.25,.55-.55v-7.22h7.22c.3,0,.55-.25,.55-.55v-6.67c0-.3-.25-.55-.55-.55Z" fill="#b85644"/>
      </g>
    </g>
  </g>
</svg>