<?xml version="1.0" encoding="UTF-8"?>
<svg xmlns="http://www.w3.org/2000/svg" viewBox="0 0 416.45 328.46">
  <defs>
    <style>
      .cls-1 {
        fill: #fff;
      }

      .cls-2 {
        fill: #19bca8;
      }

      .cls-3 {
        fill: #bf1b4a;
      }

      .cls-4 {
        fill: #1e60c1;
      }

      .cls-5 {
        isolation: isolate;
      }

      .cls-6 {
        fill: #98d7fe;
      }

      .cls-7 {
        mix-blend-mode: multiply;
        opacity: .3;
      }

      .cls-8 {
        fill: #d62b54;
      }

      .cls-9 {
        fill: #17cabe;
      }

      .cls-10 {
        fill: #fea64c;
      }

      .cls-11 {
        fill: #efefef;
      }

      .cls-12 {
        fill: #316cd5;
      }

      .cls-13 {
        fill: #ea882f;
      }
    </style>
  </defs>
  <g class="cls-5">
    <g id="BACKGROUND">
      <path class="cls-6" d="M405.55,107.83C401.61,54.1,367.89,1.07,309.17,.02c-21.94-.39-43.5,5.93-63.75,14.39-15.74,6.58-31.34,14.87-42.49,27.71-11.14-12.84-26.75-21.13-42.49-27.71C140.2,5.94,118.64-.38,96.7,.02,37.98,1.07,4.27,54.1,.33,107.83c-3.69,50.33,24.46,99.36,57.24,135.34,39.24,43.07,89.54,68.13,144.46,84.74v.55c.3-.09,.6-.18,.9-.28,.3,.09,.6,.19,.9,.28v-.55c54.92-16.61,105.22-41.67,144.46-84.74,32.79-35.99,60.94-85.02,57.24-135.34Z"/>
    </g>
    <g id="OBJECTS">
      <g>
        <path class="cls-8" d="M397.35,288.69c-.23,0-.46-.03-.69-.1l-9.51-2.65c-1.38-.39-2.19-1.82-1.8-3.2l2.32-8.34-8.34-2.32c-1.38-.39-2.19-1.82-1.8-3.2l2.65-9.51c.19-.67,.62-1.22,1.23-1.56,.6-.34,1.3-.43,1.97-.24l8.34,2.32,2.32-8.34c.38-1.38,1.82-2.19,3.2-1.8l9.51,2.65c1.38,.38,2.19,1.82,1.8,3.2l-2.32,8.34,8.34,2.32c.67,.19,1.22,.62,1.56,1.22,.34,.6,.43,1.3,.24,1.97l-2.65,9.51c-.19,.67-.62,1.22-1.22,1.56-.6,.34-1.3,.43-1.97,.24l-8.34-2.32-2.32,8.34c-.32,1.15-1.36,1.9-2.5,1.9Zm-9.11-5.47l8.88,2.47,3.02-10.84,10.84,3.02,2.47-8.88-10.84-3.02,3.02-10.84-8.88-2.47-3.02,10.84-10.84-3.02-2.47,8.88,10.84,3.02-3.02,10.84Zm25.52-14.15h0Z"/>
        <path class="cls-1" d="M79.51,84.45c-.22,0-.44-.03-.66-.09l-8.38-2.33c-.63-.18-1.16-.59-1.48-1.16-.32-.57-.4-1.24-.23-1.87l2-7.18-7.19-2c-.63-.18-1.16-.59-1.48-1.16-.32-.57-.4-1.24-.23-1.87l2.33-8.38c.18-.63,.59-1.16,1.16-1.48,.57-.32,1.24-.41,1.87-.23l7.19,2,2-7.19c.36-1.31,1.72-2.07,3.03-1.71l8.38,2.33c.63,.18,1.16,.59,1.48,1.16,.32,.57,.4,1.24,.23,1.87l-2,7.18,7.19,2c.63,.18,1.16,.59,1.48,1.16,.32,.57,.4,1.24,.23,1.87l-2.33,8.38c-.36,1.31-1.72,2.08-3.03,1.71l-7.19-2-2,7.19c-.18,.63-.59,1.16-1.16,1.48-.37,.21-.79,.32-1.21,.32Zm-7.82-5.12l7.49,2.08,2.66-9.56,9.56,2.66,2.08-7.49-9.56-2.66,2.66-9.56-7.49-2.08-2.66,9.56-9.56-2.66-2.08,7.49,9.56,2.66-2.66,9.56Zm22.23-12.18s0,0,0,0h0Z"/>
        <path class="cls-8" d="M393.46,66.83c-.15,0-.3-.01-.44-.04l-11.81-2.01c-1.41-.24-2.36-1.58-2.12-3l1.86-10.9-10.9-1.86c-1.41-.24-2.36-1.58-2.12-3l2.01-11.81c.24-1.41,1.58-2.36,3-2.12l10.9,1.86,1.86-10.9c.12-.68,.49-1.28,1.06-1.68,.57-.4,1.26-.56,1.94-.44l11.81,2.01c1.41,.24,2.36,1.59,2.12,3l-1.86,10.9,10.9,1.86c.68,.12,1.28,.49,1.68,1.06,.4,.57,.56,1.25,.44,1.94l-2.01,11.81c-.24,1.41-1.59,2.36-3,2.12l-10.9-1.86-1.86,10.9c-.12,.68-.49,1.28-1.06,1.68-.44,.31-.96,.48-1.5,.48Zm-20.96-32.32c-.07,0-.14,.05-.15,.13l-2.01,11.81c-.01,.07,.05,.16,.12,.17l13.31,2.27-2.27,13.31c-.01,.08,.04,.16,.12,.17l11.81,2.01c.07,0,.16-.05,.18-.12l2.27-13.31,13.31,2.27c.09,.01,.16-.04,.18-.12l2.01-11.81s0-.08-.03-.11c-.02-.03-.06-.05-.1-.06l-13.31-2.27,2.27-13.31c.01-.08-.04-.16-.12-.17l-11.81-2.01c-.07-.01-.16,.05-.18,.12l-2.27,13.31-13.31-2.27s-.02,0-.03,0Z"/>
        <path class="cls-8" d="M22.1,202.75c-.9-.32-1.62-1.09-1.85-2.09l-2.45-10.98-10.98,2.45c-1.55,.35-3.1-.63-3.44-2.19l-2.7-12.11c-.35-1.55,.64-3.1,2.19-3.44l10.98-2.45-2.45-10.98c-.35-1.55,.64-3.1,2.19-3.44l12.11-2.7c.75-.17,1.53-.03,2.18,.38,.65,.41,1.1,1.06,1.27,1.81l2.45,10.98,10.98-2.45c1.55-.34,3.1,.64,3.44,2.19l2.7,12.11c.35,1.55-.64,3.1-2.19,3.44l-10.98,2.45,2.45,10.98c.17,.75,.03,1.53-.38,2.18-.41,.65-1.06,1.1-1.81,1.27l-12.11,2.7c-.55,.12-1.1,.08-1.6-.1Zm-2.08-16.56l3.09,13.84,12.06-2.73-3.11-13.79,13.84-3.09-2.72-12.02-13.8,3.08-3.09-13.84-12.06,2.73,3.11,13.79-13.84,3.09,2.73,12.06,13.79-3.12Z"/>
      </g>
      <g>
        <g>
          <path class="cls-10" d="M361.38,47.76c-.01,.24-.03,.42-.04,.54l-.23,2.09h0s-26.4,245.85-26.4,245.85c-.33,3.11-3.09,5.38-6.2,5.11l-175.44-14.87-7.26-.61c-1.52-.12-2.84-.83-3.75-1.88-.33-.35-.6-.73-.82-1.16-.11-.19-.2-.38-.29-.58-.34-.84-.49-1.77-.38-2.73l.45-4.16,8.54-78.43,17.16-157.57c.33-3.02,2.94-5.26,5.95-5.13l115.95,4.88,58.4,2.46,6.58,.27,2.26,.1c1.32,.05,2.51,.54,3.45,1.35,.71,.58,1.26,1.35,1.62,2.2,.3,.69,.45,1.45,.45,2.26Z"/>
          <path class="cls-13" d="M361.62,47.27l-27.36,249.62c-.31,2.71-2.7,4.69-5.4,4.46l-183.76-15.16c-1.39-.12-2.61-.8-3.41-1.8-.83-1-1.27-2.32-1.11-3.72l6.38-57.36c36.83-20.14,124.62-76.55,183.75-182.61l26.21,1.04c1.7,.06,3.17,.98,3.98,2.32,.59,.91,.88,2.02,.74,3.2Z"/>
          <path class="cls-1" d="M348.54,52.73l-24.09,228.12c-.27,2.47-2.38,4.28-4.76,4.08l-161.78-13.85c-1.22-.11-2.3-.73-3-1.65-.73-.91-1.11-2.12-.98-3.4l5.61-52.42,18.04-168.52c.24-2.39,2.24-4.17,4.55-4.08l139.17,5.72,23.07,.95c1.5,.05,2.79,.9,3.51,2.12,.52,.83,.77,1.85,.65,2.92Z"/>
          <path class="cls-11" d="M348.54,52.73l-24.09,228.12c-.27,2.47-2.38,4.28-4.76,4.08l-161.78-13.85c-1.22-.11-2.3-.73-3-1.65-.73-.91-1.11-2.12-.98-3.4l5.61-52.42c32.42-18.41,109.71-69.96,161.77-166.88l23.07,.95c1.5,.05,2.79,.9,3.51,2.12,.52,.83,.77,1.85,.65,2.92Z"/>
        </g>
        <g>
          <path class="cls-12" d="M299.97,25.81l-23.56-1.07,1.05-9.31c.03-.23,.04-.48,.05-.69,.29-4.39-1.55-8.44-4.65-11.13-2.18-1.9-4.98-3.14-8.1-3.34-3.34-.22-6.48,.8-9,2.66-2.94,2.18-5,5.53-5.44,9.45l-1.25,11.13-22.98-1.06c-1.06-.04-1.93,.26-2,.67l-3.32,37.58-.1,1.1c-.07,.44,.8,.86,1.92,.94l73.81,4.62c.39,.03,.76,0,1.07-.05,.57-.1,.95-.31,1.01-.6l3.45-39.94c.1-.45-.83-.88-1.97-.94Zm-34.54-7.98c-.65,.31-1.39,.48-2.16,.42-1.05-.07-2-.5-2.71-1.18-.92-.86-1.47-2.11-1.39-3.47,.08-1.24,.67-2.31,1.54-3.06,.83-.72,1.93-1.11,3.11-1.05,1.02,.07,1.93,.48,2.64,1.11,.98,.86,1.55,2.15,1.47,3.55-.11,1.64-1.1,3.02-2.5,3.67Z"/>
          <path class="cls-4" d="M301.94,26.75l-3.45,39.94c-.05,.29-.44,.5-1.01,.6-.31,.05-.68,.08-1.07,.05l-73.81-4.62c-1.11-.08-1.98-.5-1.92-.94l.1-1.1,39.78-43.61c.71,.68,1.66,1.11,2.71,1.18,.77,.05,1.51-.11,2.16-.42,1.4-.65,2.39-2.03,2.5-3.67,.08-1.4-.49-2.69-1.47-3.55l6.4-7.01c3.1,2.69,4.93,6.74,4.65,11.13-.01,.22-.03,.46-.05,.69l-1.05,9.31,23.56,1.07c1.14,.05,2.07,.49,1.97,.94Z"/>
        </g>
        <g>
          <path class="cls-9" d="M297.81,152.16l-3.6,28.4c-.51,2.76-3,4.72-5.81,4.52l-23.28-1.51-2.64,22.55c-.34,2.91-2.9,5.04-5.82,4.85l-28.58-1.81c-1.7-.1-3.16-.97-4.09-2.24-.79-1.07-1.21-2.45-1.03-3.9l2.6-22.19-21.55-1.58c-3.27-.22-5.61-3.24-5.03-6.46l3.6-28.4c.49-2.76,3-4.72,5.79-4.52l21.81,1.51,2.64-22.55c.33-2.91,2.9-5.04,5.81-4.87l28.58,1.82c1.66,.1,3.07,.91,4,2.1,.87,1.1,1.3,2.54,1.13,4.03l-2.6,22.19,23.03,1.58c3.27,.22,5.63,3.24,5.04,6.46Z"/>
          <path class="cls-2" d="M294.21,180.56l3.6-28.4c.58-3.22-1.78-6.24-5.04-6.46l-23.03-1.58,2.6-22.19c.16-1.49-.27-2.93-1.13-4.03-.93-1.19-2.34-2-4-2.1l-15.52-.99-10.16,95.22,15.14,.96c2.93,.19,5.48-1.94,5.82-4.85l2.64-22.55,23.28,1.51c2.81,.19,5.3-1.76,5.81-4.52Z"/>
        </g>
      </g>
      <g>
        <g>
          <path class="cls-1" d="M385.73,195.24c-2.78,8.95-6.74,19.13-12.38,29.5-18.48,34.03-54.91,69.94-126.34,69.94-7.01,0-14.36-.35-22.07-1.08-36.37-3.44-67.25-25.22-89.3-62.98-9.7-16.63-15.68-32.75-19.01-43.45-2.34-7.53-3.36-12.38-3.46-12.85l5.54-1.15c.03,.16,1.98,9.32,6.77,22.38,3.46,9.4,8.38,20.83,15.13,32.35,21.39,36.56,49.94,56.75,84.85,60.05,78.56,7.44,118.94-26.2,139.59-60.22,7.25-11.93,12.07-23.89,15.25-34.16l5.41,1.67Z"/>
          <path class="cls-1" d="M98.2,165.26c-11.85,1.19-23.83-.93-34.76-6.28-15.16-7.42-26.66-20.25-32.39-36.13L8.91,62.37c-1.22-3.32,.25-7.03,3.4-8.62l14.58-7.36,1.96,3.89-14.58,7.36c-1.18,.6-1.73,1.99-1.28,3.23l22.15,60.49c9.58,26.59,35.53,42.29,62.47,39.58,4.29-.43,8.59-1.33,12.87-2.72,31.14-10.14,48.35-42.72,39.17-74.15l-17.74-61.99c-.36-1.26-1.6-2.06-2.91-1.86l-17.04,2.6-.66-4.31,17.04-2.6c3.45-.53,6.79,1.61,7.75,4.97l17.74,61.98c4.72,16.19,2.99,33.34-4.9,48.26-7.88,14.92-21.06,26.02-37.11,31.25-4.48,1.46-9.05,2.42-13.64,2.88Z"/>
        </g>
        <g>
          <path class="cls-12" d="M152.81,133.16c-8.41,15.94-22.49,27.79-39.62,33.37-4.79,1.55-9.67,2.58-14.56,3.08-12.65,1.26-25.44-1-37.11-6.71-5.48-2.68-10.53-6.03-15.02-9.95-8.79-7.62-15.51-17.41-19.55-28.61l-10.38-28.37c-.23-.61,.1-1.31,.71-1.53l10.04-3.68c.61-.23,1.31,.1,1.53,.73l10.4,28.39c5.35,14.88,16.23,26.08,29.5,32.08,12.25,5.54,26.53,6.66,40.4,2.14,27.81-9.06,43.64-37.41,37.19-65.53-.26-1.1-.53-2.18-.85-3.27l-8.64-30.19c-.18-.63,.19-1.29,.82-1.47l10.27-2.95c.64-.18,1.31,.19,1.48,.82l3.09,10.85,5.53,19.31c5.05,17.26,3.19,35.56-5.22,51.49Z"/>
          <path class="cls-4" d="M152.81,133.16c-8.41,15.94-22.49,27.79-39.62,33.37-4.79,1.55-9.67,2.58-14.56,3.08-12.65,1.26-25.44-1-37.11-6.71-5.48-2.68-10.53-6.03-15.02-9.95,8,.24,15.39-.11,22.24-1,12.25,5.54,26.53,6.66,40.4,2.14,27.81-9.06,43.64-37.41,37.19-65.53,3.64-10.41,5.37-19.86,6.17-26.21l5.53,19.31c5.05,17.26,3.19,35.56-5.22,51.49Z"/>
        </g>
        <path class="cls-4" d="M32.28,45.67c2.05,3.92,1.61,8.18-.97,9.53-2.58,1.35-6.33-.73-8.37-4.65-2.05-3.92-1.61-8.18,.97-9.53,2.58-1.35,6.33,.73,8.37,4.65Z"/>
        <path class="cls-4" d="M106.24,21.34c.65,4.37,3.51,7.56,6.39,7.13,2.88-.43,4.68-4.32,4.03-8.69-.65-4.37-3.51-7.56-6.39-7.13s-4.68,4.32-4.03,8.69Z"/>
        <g>
          <circle class="cls-1" cx="385.45" cy="168.47" r="25.04" transform="translate(-6.23 321.9) rotate(-45)"/>
          <g>
            <path class="cls-12" d="M407.96,149.36c-.37-.44-.75-.85-1.13-1.26-5.38-5.65-12.97-9.18-21.37-9.18-16.29,0-29.54,13.26-29.54,29.54,0,7.21,2.59,13.82,6.91,18.95,.47,.58,.98,1.13,1.5,1.67,5.37,5.51,12.86,8.92,21.13,8.92,16.29,0,29.54-13.26,29.54-29.54,0-7.28-2.65-13.96-7.04-19.11Zm-22.51,42.99c-6.67,0-12.72-2.75-17.05-7.19-.44-.44-.85-.91-1.25-1.39-3.48-4.14-5.58-9.46-5.58-15.3,0-13.17,10.71-23.88,23.88-23.88,6.81,0,12.96,2.86,17.29,7.45,.3,.31,.59,.64,.88,.98,3.57,4.16,5.71,9.56,5.71,15.45,0,13.16-10.72,23.88-23.88,23.88Z"/>
            <path class="cls-12" d="M400.33,168.47c0,8.21-6.66,14.87-14.87,14.87-4.15,0-7.89-1.7-10.59-4.42-2.65-2.69-4.28-6.39-4.28-10.45,0-8.21,6.66-14.87,14.87-14.87,4.28,0,8.12,1.8,10.83,4.67,2.51,2.66,4.04,6.26,4.04,10.2Z"/>
          </g>
        </g>
        <g>
          <path class="cls-12" d="M126.09,165.17l-2.97,.97-2.79,.9,2.45,7.5c.66,2.05-.45,4.24-2.5,4.9l-5.13,1.68c-2.05,.66-4.24-.45-4.9-2.5l-2.45-7.5-1.18,.39-4.67,1.52c-1.69,.56-3.47,.4-4.96-.31-1.61-.76-2.92-2.16-3.51-4l-2.69-8.24c-1.14-3.55,.79-7.35,4.32-8.49l24.13-7.87c1.66-.53,3.39-.4,4.85,.27,1.66,.76,3.03,2.18,3.64,4.05l2.68,8.24c1.16,3.53-.77,7.33-4.32,8.49Z"/>
          <path class="cls-4" d="M126.09,165.17l-2.97,.97-2.79,.9,2.45,7.5c.66,2.05-.45,4.24-2.5,4.9l-5.13,1.68c-2.05,.66-4.24-.45-4.9-2.5l-2.45-7.5-1.18,.39-4.67,1.52c-1.69,.56-3.47,.4-4.96-.31,5.09-2.72,19.68-11.7,27.1-28.32,1.66,.76,3.03,2.18,3.64,4.05l2.68,8.24c1.16,3.53-.77,7.33-4.32,8.49Z"/>
        </g>
        <g class="cls-7">
          <path class="cls-4" d="M415,168.47c0,16.29-13.26,29.54-29.54,29.54-8.27,0-15.76-3.41-21.13-8.92-.52-.54-1.03-1.09-1.5-1.67l3.43-2.9,.91-.75,6.87-5.79,22.73-19.16,6.87-5.79,.91-.76,3.43-2.89c4.39,5.14,7.04,11.83,7.04,19.11Z"/>
        </g>
      </g>
      <g>
        <path class="cls-8" d="M363.06,265.98c-9.69,23.81-45.14,39.7-56.6,44.29-1.02,.41-2.08,.53-3.11,.4-1.25-.15-2.43-.68-3.39-1.55-5.29-4.79-16.82-15.88-25.84-29.26-8.14-12.09-14.27-26.07-11.91-38.99,2.67-14.68,17.52-24.17,32.01-20.63,13.05,3.19,21.71,15.3,19.58,28.73h.03l.61-2.51c3.07-10.35,12.2-17.24,22.74-17.97,4.69-.33,8.92,.12,12.58,1.22,14.53,4.36,20.34,18.96,13.29,36.28Z"/>
        <path class="cls-3" d="M363.06,265.98c-9.69,23.81-45.14,39.7-56.6,44.29-1.02,.41-2.08,.53-3.11,.4-1.25-.15-2.43-.68-3.39-1.55-5.29-4.79-16.82-15.88-25.84-29.26,16.3-.18,50.9-6.21,75.65-50.15,14.53,4.36,20.34,18.96,13.29,36.28Z"/>
        <path class="cls-1" d="M308.14,296.11c-.11,0-.22,0-.33-.03-.87-.15-1.48-.87-1.51-1.75l-1.05-42.14-15.12,21.85-14.57-1.45c-.8-.08-1.39-.8-1.31-1.6,.08-.8,.8-1.4,1.6-1.31l12.85,1.28,16.05-23.2c.45-.65,1.26-.94,2.02-.71,.76,.23,1.29,.91,1.31,1.7l1,40.16,10.57-26.46c.32-.8,1.13-1.26,1.99-1.13,.85,.14,1.48,.84,1.53,1.7l1.26,21.37,5.24-9.37,16.73,2.01c.8,.1,1.37,.82,1.28,1.63-.1,.8-.83,1.38-1.63,1.28l-14.78-1.77-6.12,10.93c-.4,.72-1.21,1.07-2.01,.89-.8-.18-1.37-.86-1.41-1.68l-1.2-20.2-10.72,26.85c-.28,.71-.95,1.15-1.69,1.15Zm-1.03-2.24s0,0,0,0h0Zm17.55-5.75h0s0,0,0,0Z"/>
      </g>
      <g>
        <path class="cls-2" d="M111.67,216.02c-1.44-.21-2.62-1.35-2.81-2.87-.04-.28-3-22.29-17.91-38.17-1.25-1.33-1.19-3.43,.15-4.68,1.33-1.25,3.43-1.19,4.68,.15,16.46,17.51,19.54,40.9,19.66,41.88,.23,1.82-1.06,3.47-2.88,3.7-.3,.04-.6,.03-.89,0Z"/>
        <g>
          <path class="cls-9" d="M110.85,212.11c-10.35,4.7-20.6,4.1-28.41-.26-7.82-4.36-13.39-14.97-14.98-23.95,8.19-3.1,20.28-3.94,28.1,.42,7.81,4.37,12.75,11.22,15.3,23.79Z"/>
          <path class="cls-2" d="M110.85,212.11c-10.34,4.7-20.59,4.1-28.41-.26-7.81-4.36-13.4-14.98-14.98-23.96,.07-.03,.13-.05,.2-.08,2.43,3.72,5.47,6.89,8.95,8.83,7.81,4.36,18.05,4.97,28.4,.27,2.61,3.86,4.54,8.78,5.83,15.19Z"/>
        </g>
        <path class="cls-8" d="M171.38,247.84c-1.05,7.82-3.41,15.94-6.74,23.53-9.88,22.65-28.24,40.56-45.67,31.54-23.4,16.5-51.51-17.28-60.1-46.57-4.91-16.72,1.26-33.01,13.68-41.6,9.99-6.91,24.03-8.83,39.6-2,33.4-22.8,63.61,2.53,59.23,35.1Z"/>
        <path class="cls-3" d="M164.64,271.37c-9.88,22.65-28.24,40.56-45.67,31.54-23.4,16.5-51.51-17.28-60.1-46.57-4.91-16.72,1.26-33.01,13.68-41.6,9.61,19.11,34.48,52.36,92.09,56.63Z"/>
      </g>
    </g>
  </g>
</svg>